# xmcd CD database file
#
# Track frame offsets:
#	183
#	18223
#	42065
#	54083
#	65665
#	79408
#	88245
#	104175
#	126468
#	141585
#	158413
#	174280
#	189650
#	196573
#
# Disc length: 2787 seconds
#
# Revision: 1
# Processed by: cddbd v1.5.2PL0 Copyright (c) Steve Scherf et al.
# Submitted via: CDex 1.51
#
DISCID=bd0ae10e
DTITLE=Various Artist - Scottish Drums and Pipes
DYEAR=1993
DGENRE=Instrumental
TTITLE0=Scottish Emblem
TTITLE1=Pipe Set No 1
TTITLE2=On The Square
TTITLE3=My Home, Green Hills
TTITLE4=Swing Of The Kilt
TTITLE5=Scotland The Brave
TTITLE6=McGREGORY's March
TTITLE7=Pipe Set No 2
TTITLE8=March Of The Thistles
TTITLE9=Quick March Moray Firth
TTITLE10=River Kwai March
TTITLE11=When The Battle Is Over
TTITLE12=Regimental March
TTITLE13=Amazing Grace
EXTD=YEAR: 1993
EXTT0=
EXTT1=
EXTT2=
EXTT3=
EXTT4=
EXTT5=
EXTT6=
EXTT7=
EXTT8=
EXTT9=
EXTT10=
EXTT11=
EXTT12=
EXTT13=
PLAYORDER=
